<svg version="1.1" id="Layer_1" xmlns="http://www.w3.org/2000/svg" xmlns:xlink="http://www.w3.org/1999/xlink" x="0px" y="0px"
	 width="100%" viewBox="0 0 601 128" enable-background="new 0 0 601 128" xml:space="preserve">
<path fill="#FEFEFE" opacity="1.000000" stroke="none" 
	d="
M438.000000,129.000000 
	C292.049896,129.000000 146.599792,129.000000 1.074839,129.000000 
	C1.074839,86.397964 1.074839,43.795769 1.074839,1.096785 
	C201.333313,1.096785 401.666656,1.096785 601.971863,1.096785 
	C601.971863,43.733456 601.971863,86.366737 601.971863,129.000000 
	C547.462463,129.000000 492.981232,129.000000 438.000000,129.000000 
M465.081146,39.651951 
	C465.133148,40.107544 465.185150,40.563133 465.129852,41.511635 
	C465.414581,41.612606 465.699341,41.713577 466.855103,41.999218 
	C467.572144,42.445210 468.905914,42.880260 468.914032,43.338825 
	C469.044586,50.698654 469.006226,58.061478 469.006226,65.423622 
	C464.274384,58.604515 460.416412,51.669460 456.552795,44.737541 
	C452.297485,37.102840 452.295227,37.104103 443.441895,38.467991 
	C448.566406,49.864082 448.140442,61.319733 443.726257,72.926498 
	C447.414673,72.926498 451.014404,72.926498 455.733307,72.926498 
	C447.438171,64.356766 452.667664,54.806660 451.542603,45.848885 
	C456.512970,53.562687 461.085510,61.290211 465.221710,69.244606 
	C467.196411,73.042061 469.585938,74.150215 473.885925,72.436188 
	C473.885925,62.365433 473.885925,52.290005 473.885925,42.447887 
	C479.204926,40.778866 481.391174,42.937351 482.806732,47.512856 
	C485.210175,55.281555 488.098572,62.910313 491.088013,70.477463 
	C491.571106,71.700417 493.658325,73.045654 494.951904,72.995277 
	C496.464447,72.936378 498.668365,71.754036 499.264618,70.457626 
	C501.340851,65.943283 502.486176,60.989231 504.673035,56.540340 
	C507.220581,51.357651 506.472565,44.380795 512.803467,41.128708 
	C513.191101,40.929588 512.853821,39.319256 512.853821,38.188843 
	C509.030365,38.188843 505.423767,38.188843 500.248199,38.188843 
	C501.923767,40.400074 502.928802,41.726429 504.243744,43.461723 
	C501.497131,51.070759 498.511993,59.340664 495.526855,67.610565 
	C495.179932,67.557892 494.833008,67.505219 494.486084,67.452545 
	C491.718353,59.156681 488.950623,50.860817 486.640991,43.938118 
	C487.900055,41.524437 488.641907,40.102310 489.641724,38.185616 
	C480.964172,38.185616 473.475739,38.185616 465.486847,38.126125 
	C465.403809,38.409935 465.320740,38.693748 465.081146,39.651951 
M125.817474,58.674007 
	C126.424469,56.706673 127.031464,54.739338 127.758408,52.383217 
	C123.139198,51.172409 122.584381,47.456604 123.261108,42.958488 
	C123.527367,41.188705 123.184998,39.301754 122.960342,37.487904 
	C121.572464,26.282499 110.717285,14.139151 101.037468,13.061235 
	C99.915718,23.057901 102.878159,33.426208 98.801796,43.983696 
	C88.071747,36.003754 77.650269,36.306686 67.172470,43.838760 
	C66.746773,43.526550 66.321068,43.214344 65.895370,42.902138 
	C65.895370,32.929089 65.895370,22.956043 65.895370,12.804915 
	C53.539352,14.885759 43.016068,28.531710 42.857239,41.299629 
	C42.799259,45.960594 44.471073,51.292278 37.031605,52.600296 
	C39.056591,54.760746 40.379509,56.172161 41.914753,57.810104 
	C40.389469,58.539227 39.113522,59.149166 37.488201,59.926113 
	C39.121937,62.136860 40.545753,64.063545 42.121765,66.196182 
	C40.359295,67.061089 38.940914,67.757126 36.316368,69.045074 
	C39.061821,70.711555 40.952171,72.093430 43.030685,73.078110 
	C50.204487,76.476639 57.820198,79.118950 64.553825,83.220970 
	C71.454544,87.424782 77.516396,93.005653 83.882614,97.935173 
	C85.541588,96.116493 87.565353,93.236511 90.203560,91.123825 
	C99.992561,83.284790 110.493721,76.676666 122.736214,73.173218 
	C125.059441,72.508377 127.076515,70.773659 130.091370,69.040077 
	C127.290359,67.670677 125.769547,66.927147 124.023117,66.073326 
	C125.424698,64.265099 126.699097,62.919216 127.549965,61.344501 
	C127.810989,60.861431 126.911987,59.751568 125.817474,58.674007 
M287.230835,38.140427 
	C281.949585,38.140427 276.668335,38.140427 270.668884,38.140427 
	C271.069672,40.655685 271.087097,44.249245 271.753204,44.373817 
	C275.754028,45.122021 274.424683,47.980083 274.498810,50.156395 
	C274.640198,54.305679 274.763977,58.480480 274.442047,62.609375 
	C274.296875,64.471321 273.065033,66.248543 272.326233,68.064201 
	C271.925446,67.937897 271.524658,67.811592 271.123871,67.685287 
	C271.123871,69.484756 271.123871,71.284218 271.123871,73.271004 
	C275.876678,73.271004 280.439026,73.271004 285.536041,73.271004 
	C285.325226,71.048813 285.571655,67.684448 284.897552,67.488625 
	C279.725189,65.986031 283.027466,62.520298 282.431122,59.966980 
	C289.169403,59.385567 290.058563,60.010685 291.241608,65.948357 
	C291.533264,67.412041 291.432587,69.068741 292.111389,70.308754 
	C292.816956,71.597580 294.108276,73.134682 295.392761,73.413116 
	C297.701416,73.913574 300.196411,73.554398 304.433685,73.554398 
	C301.226349,67.077019 298.661133,61.896385 296.098083,56.720173 
	C301.996490,51.900352 302.781921,44.748909 297.409149,41.156353 
	C294.812012,39.419765 291.266113,39.102108 287.230835,38.140427 
M363.030182,62.116978 
	C360.624908,61.564907 358.219635,61.012836 355.754822,60.447098 
	C355.453064,63.322639 355.270477,65.062630 355.095551,66.729691 
	C352.110718,66.729691 349.499756,66.729691 346.883392,66.729691 
	C346.883392,64.085030 346.883392,61.692852 346.883392,59.170864 
	C349.135010,59.058651 351.078522,58.961792 353.177277,58.857197 
	C353.177277,56.570316 353.177277,54.510048 353.177277,52.398518 
	C350.791931,52.170181 348.730255,51.972832 346.923645,51.799892 
	C346.923645,49.356129 346.923645,47.425251 346.923645,45.536766 
	C349.862549,45.536766 352.443146,45.536766 354.965637,45.536766 
	C355.323914,47.264687 355.613037,48.659195 355.862488,49.862228 
	C358.435272,49.862228 360.663177,49.862228 362.657227,49.862228 
	C362.657227,45.775158 362.657227,42.048405 362.657227,38.388332 
	C353.333862,38.388332 344.405548,38.388332 335.260345,38.388332 
	C335.140167,41.706768 333.400330,45.372398 338.855927,45.798618 
	C338.855927,51.675064 339.067291,57.337757 338.733459,62.968121 
	C338.626495,64.772163 337.077789,66.490723 336.188721,68.248398 
	C335.794678,68.109718 335.400635,67.971039 335.006592,67.832359 
	C335.085693,69.606689 335.164764,71.381012 335.248230,73.253258 
	C344.653168,73.253258 353.718475,73.253258 363.048309,73.253258 
	C363.048309,69.626839 363.048309,66.310066 363.030182,62.116978 
M251.344269,66.402946 
	C246.247665,66.949158 244.452347,63.910938 244.231201,59.547184 
	C244.029190,55.561039 244.149536,51.557137 244.185577,47.561581 
	C244.192657,46.777889 244.306488,45.391350 244.637238,45.305248 
	C249.358948,44.076111 247.031036,40.927490 246.963211,38.379150 
	C242.366180,38.379150 238.083771,38.379150 233.227722,38.379150 
	C233.415680,40.542171 233.077911,43.810802 233.827179,44.082577 
	C237.816574,45.529610 236.278961,48.623764 236.464661,51.129227 
	C236.734955,54.775787 236.478714,58.477123 236.949051,62.089737 
	C237.845230,68.973152 243.092453,73.593147 249.765976,73.811462 
	C256.256927,74.023796 261.822296,70.051498 263.067688,63.395477 
	C263.944611,58.708843 263.689301,53.812325 263.973572,49.011539 
	C264.050354,47.714924 263.896118,45.492825 264.451599,45.281376 
	C268.694458,43.666241 266.256226,40.829235 266.382538,38.337196 
	C261.713013,38.337196 257.439514,38.337196 252.742844,38.337196 
	C253.392136,40.867004 250.361038,44.239399 255.316742,45.113125 
	C255.721466,45.184479 256.170319,46.415272 256.176270,47.110935 
	C256.216187,51.771191 256.501526,56.477394 255.927597,61.071285 
	C255.697021,62.916767 253.498016,64.516327 251.344269,66.402946 
M224.701874,69.232498 
	C226.009644,67.321289 227.614853,65.547241 228.570908,63.473854 
	C231.782806,56.508255 229.910370,47.268009 224.510040,42.277187 
	C219.556946,37.699703 211.457642,36.414421 205.967239,39.334633 
	C196.479340,44.381023 193.317078,56.726227 199.139160,66.103142 
	C203.384888,72.941231 214.180222,78.227409 224.701874,69.232498 
M321.080597,60.658001 
	C323.643402,63.021671 323.091644,65.545235 320.259430,66.521645 
	C315.604919,68.126266 313.326080,65.088791 312.573792,61.148727 
	C309.778137,61.148727 307.365997,61.148727 305.268433,61.148727 
	C303.211395,65.378754 306.004944,67.365234 308.284393,69.690475 
	C313.119019,74.622238 320.236176,75.658905 326.077576,72.071548 
	C330.049988,69.631996 331.475311,65.935570 331.129547,61.427151 
	C330.811523,57.280220 328.378540,54.769867 324.679565,53.370258 
	C322.042114,52.372330 319.212952,51.804184 316.710785,50.559078 
	C315.509583,49.961338 314.867157,48.240662 313.971710,47.028526 
	C315.369965,46.116909 317.231354,44.132496 318.078247,44.498089 
	C320.463409,45.527683 322.431488,47.523567 324.563965,49.138515 
	C324.367828,49.386337 324.171722,49.634159 323.975586,49.881981 
	C326.407196,49.881981 328.838806,49.881981 331.688629,49.881981 
	C331.541168,47.625507 332.058105,45.303139 331.170135,43.824387 
	C328.249115,38.960037 320.683838,36.508179 314.466034,37.731934 
	C309.515320,38.706310 306.314148,41.287518 305.733734,46.521866 
	C305.154755,51.743317 307.225128,55.336132 312.374207,57.520458 
	C314.961273,58.617943 317.726532,59.295490 321.080597,60.658001 
M169.428085,50.223206 
	C173.367020,44.769173 177.988632,43.747051 182.506790,46.646881 
	C184.931137,48.202869 188.032135,48.704582 191.222534,49.820049 
	C191.222534,46.031471 191.222534,43.753586 191.222534,42.114693 
	C187.102585,40.638596 183.534546,38.847843 179.761230,38.116863 
	C172.305222,36.672470 165.443573,40.550346 162.147186,47.422401 
	C158.698807,54.611294 160.176651,63.817852 165.641830,69.193123 
	C174.259659,77.669182 188.684830,74.577896 191.800903,63.587238 
	C188.272720,61.817249 185.323761,60.872143 181.929794,64.730835 
	C178.687408,68.417206 172.303589,67.123085 170.268036,62.311409 
	C168.847549,58.953663 169.418549,54.753429 169.428085,50.223206 
M522.148987,61.226261 
	C534.426514,61.115612 534.426514,61.115612 536.591064,67.596634 
	C535.566711,69.498779 534.777405,70.964500 533.743652,72.884109 
	C538.564331,72.884109 542.156860,72.884109 545.970764,72.884109 
	C545.782532,71.592560 545.770020,69.849899 545.486084,69.804497 
	C540.205139,68.960022 540.706665,64.116020 539.367676,60.790466 
	C536.768982,54.336075 534.500916,47.733311 532.438782,41.085651 
	C531.620728,38.448673 530.268677,37.961933 527.797729,37.881836 
	C525.198242,37.797573 523.949402,38.655910 523.177856,41.094242 
	C521.527283,46.310627 519.998108,51.617039 517.731323,56.571877 
	C515.599731,61.231312 516.339233,67.543968 510.377686,70.226433 
	C510.036133,70.380127 510.333496,71.953697 510.333496,72.924599 
	C514.407837,72.924599 518.003418,72.924599 523.310730,72.924599 
	C521.265564,70.632523 520.118042,69.346458 518.626160,67.674469 
	C519.362854,65.957054 520.333374,63.694687 522.148987,61.226261 
M414.726807,48.095001 
	C411.258392,56.301414 410.118195,65.461998 403.137024,72.931763 
	C408.189301,72.931763 411.783020,72.931763 417.137634,72.931763 
	C415.090912,70.633469 413.957306,69.360565 412.647034,67.889267 
	C414.037140,65.634712 412.651154,60.814777 418.555481,61.106564 
	C430.444153,61.694096 427.491852,59.468929 430.415985,67.551605 
	C429.380310,69.527344 428.612976,70.991219 427.625793,72.874466 
	C432.424805,72.874466 436.019745,72.874466 440.136841,72.874466 
	C439.648102,71.406525 439.364349,69.525902 438.960907,69.499870 
	C434.399109,69.205521 434.959534,65.209221 433.930786,62.581005 
	C431.512512,56.402996 429.046936,50.200130 427.303558,43.815353 
	C425.956573,38.882187 423.640228,36.754543 418.178955,38.379906 
	C417.175049,41.163239 416.061737,44.249912 414.726807,48.095001 
M560.564758,74.022964 
	C561.394653,73.979454 562.237732,74.014931 563.052429,73.879799 
	C568.931946,72.904594 572.470886,69.733673 572.998352,65.018143 
	C573.596802,59.668159 571.199890,56.414192 564.900818,54.139355 
	C562.252014,53.182751 559.474854,52.531788 556.919067,51.380032 
	C553.626343,49.896214 553.014404,45.921761 555.495911,43.595554 
	C558.325317,40.943230 564.972290,41.252117 566.505798,44.685242 
	C568.060242,48.165119 570.111145,47.775406 572.881592,47.176666 
	C573.607544,42.836876 570.119629,41.200111 567.686584,39.538956 
	C563.212646,36.484314 558.206177,36.904545 553.547974,39.516273 
	C549.967468,41.523754 548.665527,44.919746 549.208069,48.844681 
	C549.940369,54.142433 553.975769,55.938789 558.517456,57.234543 
	C561.035767,57.953007 563.724121,58.738808 565.752808,60.267826 
	C567.027283,61.228436 568.011719,63.797943 567.674377,65.324829 
	C567.344666,66.816780 565.368713,68.573250 563.771362,69.042648 
	C558.314575,70.646164 555.305725,68.738472 553.110168,62.982979 
	C551.474243,62.982979 549.849854,62.982979 548.228394,62.982979 
	C548.198303,68.548370 553.042908,73.121902 560.564758,74.022964 
M371.135040,61.164097 
	C375.385010,72.247047 384.099426,76.889687 393.759186,72.526382 
	C397.186157,70.978401 399.815399,67.664215 403.485229,64.589622 
	C400.812561,63.264191 399.680267,62.702667 399.259430,62.493954 
	C396.287476,64.887947 394.046173,67.539108 391.190948,68.799156 
	C386.679749,70.790016 382.241516,69.377464 378.926971,65.794746 
	C374.674957,61.198761 374.187225,55.656078 376.191681,49.930779 
	C379.164551,41.439220 388.248871,39.175812 395.176514,44.895802 
	C396.863770,46.288933 399.169037,46.933575 401.594299,48.120083 
	C401.866028,44.378815 401.866028,44.378807 397.324646,40.828934 
	C390.333466,35.364109 381.152771,36.043987 375.287292,42.651791 
	C370.766144,47.745140 369.559998,53.772552 371.135040,61.164097 
z"/>
<path fill="#4173B0" opacity="1.000000" stroke="none" 
	d="
M126.180832,58.801369 
	C126.911987,59.751568 127.810989,60.861431 127.549965,61.344501 
	C126.699097,62.919216 125.424698,64.265099 124.023117,66.073326 
	C125.769547,66.927147 127.290359,67.670677 130.091370,69.040077 
	C127.076515,70.773659 125.059441,72.508377 122.736214,73.173218 
	C110.493721,76.676666 99.992561,83.284790 90.203560,91.123825 
	C87.565353,93.236511 85.541588,96.116493 83.882614,97.935173 
	C77.516396,93.005653 71.454544,87.424782 64.553825,83.220970 
	C57.820198,79.118950 50.204487,76.476639 43.030685,73.078110 
	C40.952171,72.093430 39.061821,70.711555 36.316368,69.045074 
	C38.940914,67.757126 40.359295,67.061089 42.121765,66.196182 
	C40.545753,64.063545 39.121937,62.136860 37.488201,59.926113 
	C39.113522,59.149166 40.389469,58.539227 41.914753,57.810104 
	C40.379509,56.172161 39.056591,54.760746 37.031605,52.600296 
	C44.471073,51.292278 42.799259,45.960594 42.857239,41.299629 
	C43.016068,28.531710 53.539352,14.885759 65.895370,12.804915 
	C65.895370,22.956043 65.895370,32.929089 65.895370,42.902138 
	C66.321068,43.214344 66.746773,43.526550 67.172470,43.838760 
	C77.650269,36.306686 88.071747,36.003754 98.801796,43.983696 
	C102.878159,33.426208 99.915718,23.057901 101.037468,13.061235 
	C110.717285,14.139151 121.572464,26.282499 122.960342,37.487904 
	C123.184998,39.301754 123.527367,41.188705 123.261108,42.958488 
	C122.584381,47.456604 123.139198,51.172409 127.758408,52.383217 
	C127.031464,54.739338 126.424469,56.706673 126.180832,58.801369 
z"/>
<path fill="#1A3555" opacity="1.000000" stroke="none" 
	d="
M465.987305,38.185616 
	C473.475739,38.185616 480.964172,38.185616 489.641724,38.185616 
	C488.641907,40.102310 487.900055,41.524437 486.640991,43.938118 
	C488.950623,50.860817 491.718353,59.156681 494.486084,67.452545 
	C494.833008,67.505219 495.179932,67.557892 495.526855,67.610565 
	C498.511993,59.340664 501.497131,51.070759 504.243744,43.461723 
	C502.928802,41.726429 501.923767,40.400074 500.248199,38.188843 
	C505.423767,38.188843 509.030365,38.188843 512.853821,38.188843 
	C512.853821,39.319256 513.191101,40.929588 512.803467,41.128708 
	C506.472565,44.380795 507.220581,51.357651 504.673035,56.540340 
	C502.486176,60.989231 501.340851,65.943283 499.264618,70.457626 
	C498.668365,71.754036 496.464447,72.936378 494.951904,72.995277 
	C493.658325,73.045654 491.571106,71.700417 491.088013,70.477463 
	C488.098572,62.910313 485.210175,55.281555 482.806732,47.512856 
	C481.391174,42.937351 479.204926,40.778866 473.885925,42.447887 
	C473.885925,52.290005 473.885925,62.365433 473.885925,72.436188 
	C469.585938,74.150215 467.196411,73.042061 465.221710,69.244606 
	C461.085510,61.290211 456.512970,53.562687 451.542603,45.848885 
	C452.667664,54.806660 447.438171,64.356766 455.733307,72.926498 
	C451.014404,72.926498 447.414673,72.926498 443.726257,72.926498 
	C448.140442,61.319733 448.566406,49.864082 443.441895,38.467991 
	C452.295227,37.104103 452.297485,37.102840 456.552795,44.737541 
	C460.416412,51.669460 464.274384,58.604515 469.006226,65.423622 
	C469.006226,58.061478 469.044586,50.698654 468.914032,43.338825 
	C468.905914,42.880260 467.572144,42.445210 466.336487,41.738964 
	C465.670624,41.266911 465.477051,41.113583 465.237183,41.018723 
	C465.185150,40.563133 465.133148,40.107544 465.322449,39.222725 
	C465.763519,38.631706 465.904694,38.429077 465.987305,38.185616 
z"/>
<path fill="#1C3756" opacity="1.000000" stroke="none" 
	d="
M287.690308,38.141212 
	C291.266113,39.102108 294.812012,39.419765 297.409149,41.156353 
	C302.781921,44.748909 301.996490,51.900352 296.098083,56.720173 
	C298.661133,61.896385 301.226349,67.077019 304.433685,73.554398 
	C300.196411,73.554398 297.701416,73.913574 295.392761,73.413116 
	C294.108276,73.134682 292.816956,71.597580 292.111389,70.308754 
	C291.432587,69.068741 291.533264,67.412041 291.241608,65.948357 
	C290.058563,60.010685 289.169403,59.385567 282.431122,59.966980 
	C283.027466,62.520298 279.725189,65.986031 284.897552,67.488625 
	C285.571655,67.684448 285.325226,71.048813 285.536041,73.271004 
	C280.439026,73.271004 275.876678,73.271004 271.123871,73.271004 
	C271.123871,71.284218 271.123871,69.484756 271.123871,67.685287 
	C271.524658,67.811592 271.925446,67.937897 272.326233,68.064201 
	C273.065033,66.248543 274.296875,64.471321 274.442047,62.609375 
	C274.763977,58.480480 274.640198,54.305679 274.498810,50.156395 
	C274.424683,47.980083 275.754028,45.122021 271.753204,44.373817 
	C271.087097,44.249245 271.069672,40.655685 270.668884,38.140427 
	C276.668335,38.140427 281.949585,38.140427 287.690308,38.141212 
M284.589172,44.833759 
	C279.596741,46.504181 283.275513,50.159184 282.254791,53.055397 
	C284.721405,53.055397 286.885590,53.560162 288.608246,52.904613 
	C290.140533,52.321507 292.111145,50.498074 292.177704,49.138397 
	C292.242218,47.819160 290.305328,46.159893 288.904022,45.107033 
	C288.133667,44.528271 286.655426,44.891762 284.589172,44.833759 
z"/>
<path fill="#1E3857" opacity="1.000000" stroke="none" 
	d="
M363.039246,62.555138 
	C363.048309,66.310066 363.048309,69.626839 363.048309,73.253258 
	C353.718475,73.253258 344.653168,73.253258 335.248230,73.253258 
	C335.164764,71.381012 335.085693,69.606689 335.006592,67.832359 
	C335.400635,67.971039 335.794678,68.109718 336.188721,68.248398 
	C337.077789,66.490723 338.626495,64.772163 338.733459,62.968121 
	C339.067291,57.337757 338.855927,51.675064 338.855927,45.798618 
	C333.400330,45.372398 335.140167,41.706768 335.260345,38.388332 
	C344.405548,38.388332 353.333862,38.388332 362.657227,38.388332 
	C362.657227,42.048405 362.657227,45.775158 362.657227,49.862228 
	C360.663177,49.862228 358.435272,49.862228 355.862488,49.862228 
	C355.613037,48.659195 355.323914,47.264687 354.965637,45.536766 
	C352.443146,45.536766 349.862549,45.536766 346.923645,45.536766 
	C346.923645,47.425251 346.923645,49.356129 346.923645,51.799892 
	C348.730255,51.972832 350.791931,52.170181 353.177277,52.398518 
	C353.177277,54.510048 353.177277,56.570316 353.177277,58.857197 
	C351.078522,58.961792 349.135010,59.058651 346.883392,59.170864 
	C346.883392,61.692852 346.883392,64.085030 346.883392,66.729691 
	C349.499756,66.729691 352.110718,66.729691 355.095551,66.729691 
	C355.270477,65.062630 355.453064,63.322639 355.754822,60.447098 
	C358.219635,61.012836 360.624908,61.564907 363.039246,62.555138 
z"/>
<path fill="#1D3757" opacity="1.000000" stroke="none" 
	d="
M251.769592,66.315384 
	C253.498016,64.516327 255.697021,62.916767 255.927597,61.071285 
	C256.501526,56.477394 256.216187,51.771191 256.176270,47.110935 
	C256.170319,46.415272 255.721466,45.184479 255.316742,45.113125 
	C250.361038,44.239399 253.392136,40.867004 252.742844,38.337196 
	C257.439514,38.337196 261.713013,38.337196 266.382538,38.337196 
	C266.256226,40.829235 268.694458,43.666241 264.451599,45.281376 
	C263.896118,45.492825 264.050354,47.714924 263.973572,49.011539 
	C263.689301,53.812325 263.944611,58.708843 263.067688,63.395477 
	C261.822296,70.051498 256.256927,74.023796 249.765976,73.811462 
	C243.092453,73.593147 237.845230,68.973152 236.949051,62.089737 
	C236.478714,58.477123 236.734955,54.775787 236.464661,51.129227 
	C236.278961,48.623764 237.816574,45.529610 233.827179,44.082577 
	C233.077911,43.810802 233.415680,40.542171 233.227722,38.379150 
	C238.083771,38.379150 242.366180,38.379150 246.963211,38.379150 
	C247.031036,40.927490 249.358948,44.076111 244.637238,45.305248 
	C244.306488,45.391350 244.192657,46.777889 244.185577,47.561581 
	C244.149536,51.557137 244.029190,55.561039 244.231201,59.547184 
	C244.452347,63.910938 246.247665,66.949158 251.769592,66.315384 
z"/>
<path fill="#173353" opacity="1.000000" stroke="none" 
	d="
M224.437347,69.484482 
	C214.180222,78.227409 203.384888,72.941231 199.139160,66.103142 
	C193.317078,56.726227 196.479340,44.381023 205.967239,39.334633 
	C211.457642,36.414421 219.556946,37.699703 224.510040,42.277187 
	C229.910370,47.268009 231.782806,56.508255 228.570908,63.473854 
	C227.614853,65.547241 226.009644,67.321289 224.437347,69.484482 
M221.925797,58.854733 
	C221.642746,56.093616 221.906631,53.127258 220.963470,50.613842 
	C218.960464,45.275986 213.074341,43.273029 208.777618,46.313236 
	C204.744186,49.167149 203.390839,53.463558 204.348282,58.192394 
	C205.215240,62.474239 207.483353,66.113678 212.217682,66.740250 
	C217.409378,67.427330 219.965668,63.908291 221.925797,58.854733 
z"/>
<path fill="#183353" opacity="1.000000" stroke="none" 
	d="
M320.745911,60.410473 
	C317.726532,59.295490 314.961273,58.617943 312.374207,57.520458 
	C307.225128,55.336132 305.154755,51.743317 305.733734,46.521866 
	C306.314148,41.287518 309.515320,38.706310 314.466034,37.731934 
	C320.683838,36.508179 328.249115,38.960037 331.170135,43.824387 
	C332.058105,45.303139 331.541168,47.625507 331.688629,49.881981 
	C328.838806,49.881981 326.407196,49.881981 323.975586,49.881981 
	C324.171722,49.634159 324.367828,49.386337 324.563965,49.138515 
	C322.431488,47.523567 320.463409,45.527683 318.078247,44.498089 
	C317.231354,44.132496 315.369965,46.116909 313.971710,47.028526 
	C314.867157,48.240662 315.509583,49.961338 316.710785,50.559078 
	C319.212952,51.804184 322.042114,52.372330 324.679565,53.370258 
	C328.378540,54.769867 330.811523,57.280220 331.129547,61.427151 
	C331.475311,65.935570 330.049988,69.631996 326.077576,72.071548 
	C320.236176,75.658905 313.119019,74.622238 308.284393,69.690475 
	C306.004944,67.365234 303.211395,65.378754 305.268433,61.148727 
	C307.365997,61.148727 309.778137,61.148727 312.573792,61.148727 
	C313.326080,65.088791 315.604919,68.126266 320.259430,66.521645 
	C323.091644,65.545235 323.643402,63.021671 320.745911,60.410473 
z"/>
<path fill="#183353" opacity="1.000000" stroke="none" 
	d="
M169.264038,50.576363 
	C169.418549,54.753429 168.847549,58.953663 170.268036,62.311409 
	C172.303589,67.123085 178.687408,68.417206 181.929794,64.730835 
	C185.323761,60.872143 188.272720,61.817249 191.800903,63.587257 
	C188.684830,74.577896 174.259659,77.669182 165.641830,69.193123 
	C160.176651,63.817852 158.698807,54.611294 162.147186,47.422401 
	C165.443573,40.550346 172.305222,36.672470 179.761230,38.116863 
	C183.534546,38.847843 187.102585,40.638596 191.222534,42.114693 
	C191.222534,43.753586 191.222534,46.031471 191.222534,49.820049 
	C188.032135,48.704582 184.931137,48.202869 182.506790,46.646881 
	C177.988632,43.747051 173.367020,44.769173 169.264038,50.576363 
z"/>
<path fill="#1D3857" opacity="1.000000" stroke="none" 
	d="
M521.726440,61.329292 
	C520.333374,63.694687 519.362854,65.957054 518.626160,67.674469 
	C520.118042,69.346458 521.265564,70.632523 523.310730,72.924599 
	C518.003418,72.924599 514.407837,72.924599 510.333496,72.924599 
	C510.333496,71.953697 510.036133,70.380127 510.377686,70.226433 
	C516.339233,67.543968 515.599731,61.231312 517.731323,56.571877 
	C519.998108,51.617039 521.527283,46.310627 523.177856,41.094242 
	C523.949402,38.655910 525.198242,37.797573 527.797729,37.881836 
	C530.268677,37.961933 531.620728,38.448673 532.438782,41.085651 
	C534.500916,47.733311 536.768982,54.336075 539.367676,60.790466 
	C540.706665,64.116020 540.205139,68.960022 545.486084,69.804497 
	C545.770020,69.849899 545.782532,71.592560 545.970764,72.884109 
	C542.156860,72.884109 538.564331,72.884109 533.743652,72.884109 
	C534.777405,70.964500 535.566711,69.498779 536.591064,67.596634 
	C534.426514,61.115612 534.426514,61.115612 521.726440,61.329292 
M529.263062,46.399670 
	C528.764282,45.076897 528.265564,43.754120 527.486938,41.689003 
	C525.640930,47.275761 524.059448,52.062153 522.342712,57.257690 
	C526.224792,57.257690 529.408020,57.257690 532.987610,57.257690 
	C531.766602,53.609123 530.674805,50.346741 529.263062,46.399670 
z"/>
<path fill="#1C3756" opacity="1.000000" stroke="none" 
	d="
M414.837646,47.715790 
	C416.061737,44.249912 417.175049,41.163239 418.178955,38.379906 
	C423.640228,36.754543 425.956573,38.882187 427.303558,43.815353 
	C429.046936,50.200130 431.512512,56.402996 433.930786,62.581005 
	C434.959534,65.209221 434.399109,69.205521 438.960907,69.499870 
	C439.364349,69.525902 439.648102,71.406525 440.136841,72.874466 
	C436.019745,72.874466 432.424805,72.874466 427.625793,72.874466 
	C428.612976,70.991219 429.380310,69.527344 430.415985,67.551605 
	C427.491852,59.468929 430.444153,61.694096 418.555481,61.106564 
	C412.651154,60.814777 414.037140,65.634712 412.647034,67.889267 
	C413.957306,69.360565 415.090912,70.633469 417.137634,72.931763 
	C411.783020,72.931763 408.189301,72.931763 403.137024,72.931763 
	C410.118195,65.461998 411.258392,56.301414 414.837646,47.715790 
M426.226898,57.303070 
	C424.838959,52.357407 423.451050,47.411743 422.063110,42.466080 
	C421.724365,42.531254 421.385620,42.596428 421.046875,42.661602 
	C419.453583,47.435123 417.860321,52.208649 416.081635,57.537655 
	C419.629425,57.537655 422.557831,57.537655 426.226898,57.303070 
z"/>
<path fill="#1F3958" opacity="1.000000" stroke="none" 
	d="
M560.141235,74.024323 
	C553.042908,73.121902 548.198303,68.548370 548.228394,62.982979 
	C549.849854,62.982979 551.474243,62.982979 553.110168,62.982979 
	C555.305725,68.738472 558.314575,70.646164 563.771362,69.042648 
	C565.368713,68.573250 567.344666,66.816780 567.674377,65.324829 
	C568.011719,63.797943 567.027283,61.228436 565.752808,60.267826 
	C563.724121,58.738808 561.035767,57.953007 558.517456,57.234543 
	C553.975769,55.938789 549.940369,54.142433 549.208069,48.844681 
	C548.665527,44.919746 549.967468,41.523754 553.547974,39.516273 
	C558.206177,36.904545 563.212646,36.484314 567.686584,39.538956 
	C570.119629,41.200111 573.607544,42.836876 572.881592,47.176666 
	C570.111145,47.775406 568.060242,48.165119 566.505798,44.685242 
	C564.972290,41.252117 558.325317,40.943230 555.495911,43.595554 
	C553.014404,45.921761 553.626343,49.896214 556.919067,51.380032 
	C559.474854,52.531788 562.252014,53.182751 564.900818,54.139355 
	C571.199890,56.414192 573.596802,59.668159 572.998352,65.018143 
	C572.470886,69.733673 568.931946,72.904594 563.052429,73.879799 
	C562.237732,74.014931 561.394653,73.979454 560.141235,74.024323 
z"/>
<path fill="#203A59" opacity="1.000000" stroke="none" 
	d="
M371.065063,60.769394 
	C369.559998,53.772552 370.766144,47.745140 375.287292,42.651791 
	C381.152771,36.043987 390.333466,35.364109 397.324646,40.828934 
	C401.866028,44.378807 401.866028,44.378815 401.594299,48.120083 
	C399.169037,46.933575 396.863770,46.288933 395.176514,44.895802 
	C388.248871,39.175812 379.164551,41.439220 376.191681,49.930779 
	C374.187225,55.656078 374.674957,61.198761 378.926971,65.794746 
	C382.241516,69.377464 386.679749,70.790016 391.190948,68.799156 
	C394.046173,67.539108 396.287476,64.887947 399.259430,62.493954 
	C399.680267,62.702667 400.812561,63.264191 403.485229,64.589622 
	C399.815399,67.664215 397.186157,70.978401 393.759186,72.526382 
	C384.099426,76.889687 375.385010,72.247047 371.065063,60.769394 
z"/>
<path fill="#1D3857" opacity="1.000000" stroke="none" 
	d="
M465.183533,41.265179 
	C465.477051,41.113583 465.670624,41.266911 465.900940,41.646629 
	C465.699341,41.713577 465.414581,41.612606 465.183533,41.265179 
z"/>
<path fill="#1D3857" opacity="1.000000" stroke="none" 
	d="
M465.737061,38.155869 
	C465.904694,38.429077 465.763519,38.631706 465.400696,38.885529 
	C465.320740,38.693748 465.403809,38.409935 465.737061,38.155869 
z"/>
<path fill="#F3F4F6" opacity="1.000000" stroke="none" 
	d="
M285.042755,44.832088 
	C286.655426,44.891762 288.133667,44.528271 288.904022,45.107033 
	C290.305328,46.159893 292.242218,47.819160 292.177704,49.138397 
	C292.111145,50.498074 290.140533,52.321507 288.608246,52.904613 
	C286.885590,53.560162 284.721405,53.055397 282.254791,53.055397 
	C283.275513,50.159184 279.596741,46.504181 285.042755,44.832088 
z"/>
<path fill="#F8F9FA" opacity="1.000000" stroke="none" 
	d="
M221.830902,59.252514 
	C219.965668,63.908291 217.409378,67.427330 212.217682,66.740250 
	C207.483353,66.113678 205.215240,62.474239 204.348282,58.192394 
	C203.390839,53.463558 204.744186,49.167149 208.777618,46.313236 
	C213.074341,43.273029 218.960464,45.275986 220.963470,50.613842 
	C221.906631,53.127258 221.642746,56.093616 221.830902,59.252514 
z"/>
<path fill="#E9ECEF" opacity="1.000000" stroke="none" 
	d="
M529.423096,46.742012 
	C530.674805,50.346741 531.766602,53.609123 532.987610,57.257690 
	C529.408020,57.257690 526.224792,57.257690 522.342712,57.257690 
	C524.059448,52.062153 525.640930,47.275761 527.486938,41.689003 
	C528.265564,43.754120 528.764282,45.076897 529.423096,46.742012 
z"/>
<path fill="#E6E9EC" opacity="1.000000" stroke="none" 
	d="
M425.856567,57.420364 
	C422.557831,57.537655 419.629425,57.537655 416.081635,57.537655 
	C417.860321,52.208649 419.453583,47.435123 421.046875,42.661602 
	C421.385620,42.596428 421.724365,42.531254 422.063110,42.466080 
	C423.451050,47.411743 424.838959,52.357407 425.856567,57.420364 
z"/>
</svg>